Patient4_TMGait_0pt4_02_left_03_EMG.mot
version=1
nRows=16
nColumns=33
inDegrees=no
endheader
time	1LAddLong	2LGlutMax	3LGlutMed	4LIliopsoas	5LSemiMemb	6LBicFemLong	7LRecFem	8LVastMed	9LVastLat	10LGasMed	11LTibAnt	12lTibPost	13LPeroneusLong	14LSol	15LExtDigLong	16LFlexDigLong	17RAddLong	18RGlutMax	19RGlutMed	20RIliopsoas	21RSemiMemb	22RBicFemLong	23RRecFem	24RVastMed	25RVastLat	26RGasMed	27RTibAnt	28RTibPost	29RPeroneusLong	30RSol	31RExtDigLong	32RFlexDigLong
4.392	0.00885	-0.025482	0.024872	-0.00473	0.018616	0.027618	-0.16647	-0.001831	0.025482	0.003357	-0.005341	-0.03952	0.046539	-0.036163	0.065613	0.001221	0.07019	0.44556	-0.11261	0.1178	-0.067749	-0.054626	0.44342	-0.083313	-0.021515	-0.006561	0.087433	-0.001373	-0.10696	-0.004883	-0.000916	-0.017548
4.393	0.011902	0.058136	0.02533	-0.030823	-0.020142	-0.088959	-0.1619	0.001678	0.023651	0.001373	-0.009766	-0.043182	-0.065918	-0.002136	0.092773	-0.009308	0.048218	0.42419	-0.12482	0.063171	-0.060425	-0.062256	0.40405	-0.066071	-0.037079	-0.001373	0.38605	0.000458	-0.14587	0.020752	-0.007019	-0.013733
4.394	0.00061	0.077667	-0.048218	0.019073	-0.001526	-0.22186	-0.19089	-0.000153	0.008087	-0.007935	-0.013733	-0.039673	0.010376	0.023651	0.13123	0.00946	0.000305	0.40863	-0.24231	-0.087585	-0.052948	-0.045776	0.38376	-0.081787	-0.011444	-0.003204	0.43243	-0.005798	-0.12344	-0.002747	-0.006256	-0.001678
4.395	-0.008545	0.072021	-0.075531	0.033569	0.021973	-0.088806	-0.22842	-0.000305	-0.024872	0.000458	-0.077972	-0.03952	-0.11948	0.075836	0.14801	-0.000458	-0.028839	0.35294	-0.25101	-0.13321	-0.039978	-0.052795	0.40512	-0.077972	-0.018311	-0.002136	0.27222	0.001068	-0.082855	-0.050964	0.000153	-0.013275
4.396	-0.005188	0.11429	-0.041504	0.004425	-0.002594	-0.013123	-0.31784	0.00351	-0.027924	0.010071	0.063782	-0.041046	-0.17349	0.073853	0.11627	-0.00824	-0.037994	0.37628	-0.23331	-0.14877	-0.036011	-0.045013	0.35919	-0.054474	-0.010529	0.001984	-0.27924	-0.003052	-0.036163	-0.13473	0.006866	-0.00885
4.397	0.002136	0.22125	0.074005	0.001068	-0.027161	-0.005798	-0.4248	-0.000458	0.090637	0.026398	0.046387	-0.039978	-0.17838	0.046234	0.039368	-0.007477	-0.036469	0.35828	-0.16953	-0.12253	-0.032349	-0.044098	0.38116	-0.030212	-0.012512	0.003967	-0.49484	-0.000916	0.094604	-0.12817	-0.002747	-0.011597
4.398	-0.00351	0.22446	0.094299	-0.019226	-0.058289	0.00061	-0.37811	0.006104	0.15778	0.023499	-0.017242	-0.043488	0.07782	0.023651	0.000305	-0.022583	-0.02533	0.37186	-0.047913	-0.11704	-0.026855	-0.040283	0.37216	-0.016937	-0.002899	-0.00946	-0.29968	-0.00061	0.17014	-0.093842	-0.001831	-0.006104
4.399	0.005188	0.18875	-0.01236	0.00824	-0.05127	0.049896	-0.33615	0.001373	0.097198	0.027161	-0.015564	-0.048676	0.013275	0.040741	-0.015717	-0.013123	-0.006409	0.37003	0.071259	0.11948	-0.034027	-0.02182	0.37293	-0.007935	0.011292	-0.000458	-0.15503	-0.000458	0.10178	-0.10056	-0.003204	-0.009003
4.4	0.004425	0.25772	-0.087891	-0.03006	-0.017395	0.045471	-0.26138	-0.015411	0.083923	0.018311	0.038605	-0.043945	0.20889	0.012665	0.10407	-0.018158	0.001221	0.33829	-0.009766	0.18845	-0.03006	-0.032349	0.38803	-0.002289	-0.012512	-0.002899	-0.06012	-0.001068	-0.059662	-0.077209	-0.001831	-0.010376
4.401	-0.000916	0.30853	-0.17807	0.004272	0.014954	0.039825	-0.28992	-0.015411	0.11902	-0.006409	0.062256	-0.045013	0.21759	0.072784	0.088654	-0.002441	0.012512	0.31158	-0.067444	0.17395	-0.032654	-0.042267	0.38849	0.00473	0.009766	0.003967	-0.054169	-0.003815	-0.080719	-0.057068	-0.001678	-0.016479
4.402	-0.002747	0.30945	-0.066528	0.01358	-0.001984	0.024261	-0.31937	0.000458	0.084076	-0.016327	0.065002	-0.033264	0.30502	0.10529	0.09964	0.001373	0.027466	0.30884	0.051727	0.19959	-0.033569	-0.019531	0.34988	-0.034332	0.011444	0.005646	-0.29129	-0.001984	-0.047455	-0.031586	-0.000305	-0.020294
4.403	-0.004578	0.27283	0.046997	-0.036316	-0.039368	0.071564	-0.31357	0.022736	-0.006104	-0.066071	0.060883	-0.029602	0.298	0.14862	-0.012817	0.009308	0.043793	0.34439	-0.075836	0.10376	-0.040283	-0.033112	0.33325	-0.008698	0.023956	0.004883	-0.12146	-0.000305	0.035248	-0.013428	0.000153	-0.015717
4.404	-0.008698	0.28427	0.18509	0.013885	-0.05188	0.12329	-0.39276	0.016632	0.043335	-0.055542	0.04364	-0.031738	-0.069427	0.1532	-0.19775	0.017395	0.042114	0.31723	-0.12802	0.027008	-0.032501	-0.036469	0.30746	0.007019	0.008087	0.010834	0.11398	-0.002747	0.103	-0.042572	-0.00061	-0.014038
4.405	0.040588	0.26367	0.15457	-0.007324	-0.029907	0.19241	-0.41061	0.010834	0.087585	-0.10468	0.14832	-0.028076	-0.39917	0.17548	0.17395	0.00946	0.068359	0.27771	-0.13458	-0.035553	-0.046844	-0.040894	0.3093	-0.053406	0.02121	0.00885	0.002136	-0.005341	0.073395	-0.024109	-0.001373	-0.019989
4.406	0.017395	0.25284	0.1387	0.001984	-0.05188	0.21362	-0.37674	0.002747	0.15732	-0.088806	0.1593	-0.028534	-0.17487	0.14267	0.22263	-0.004578	0.074158	0.21805	-0.063477	-0.10132	-0.060577	-0.027313	0.30609	-0.042572	0.023499	-0.000763	-0.056152	-0.002441	-0.00412	-0.000458	-0.003967	-0.016785
4.407	-0.000305	0.23056	0.016632	0.00473	-0.053253	0.26764	-0.2681	0.007324	0.1506	-0.038757	0.12451	-0.033875	-0.13336	0.023041	-0.13229	-0.002136	0.028687	0.21744	-0.045013	-0.022278	-0.068054	-0.049896	0.30334	0.002747	0.020294	-0.006409	-0.031281	-0.004578	-0.048981	-0.027771	-0.003204	-0.009766
